<?xml version="1.0" encoding="UTF-8"?>
<svg version="1.1" xmlns="http://www.w3.org/2000/svg" width="456" height="456">
<path d="M0 0 C0.89115552 -0.00384115 1.78231105 -0.00768229 2.70047128 -0.01163983 C3.68051397 -0.01077335 4.66055667 -0.00990687 5.67029762 -0.00901413 C6.71063892 -0.01198525 7.75098022 -0.01495637 8.82284701 -0.01801753 C12.32584844 -0.02672293 15.82881576 -0.02821433 19.33182716 -0.02970505 C21.83644115 -0.03433187 24.34105443 -0.03935634 26.84566689 -0.04475021 C33.66172355 -0.05788813 40.47776894 -0.06435824 47.29383612 -0.06876087 C51.54880683 -0.07152285 55.80377526 -0.07576009 60.05874443 -0.08026505 C71.83694186 -0.09245726 83.61513746 -0.10275704 95.39334106 -0.10614014 C96.52415761 -0.10646949 96.52415761 -0.10646949 97.67781893 -0.10680549 C98.81135414 -0.10713291 98.81135414 -0.10713291 99.96778905 -0.10746694 C101.49912858 -0.1079104 103.03046811 -0.10835697 104.56180763 -0.10880661 C105.7012057 -0.10913875 105.7012057 -0.10913875 106.86362191 -0.10947761 C119.17558032 -0.11342678 131.48747959 -0.13088462 143.79941516 -0.15416613 C156.43646531 -0.17786981 169.07348578 -0.19034152 181.71055853 -0.19150805 C188.80723137 -0.19242531 195.90382712 -0.19819037 203.00047874 -0.21632767 C209.67349075 -0.23332207 216.34633131 -0.23498868 223.01936722 -0.22618866 C225.47158576 -0.22541558 227.92381202 -0.22979637 230.37601089 -0.23964691 C233.71769128 -0.2522857 237.0588461 -0.24653335 240.40052223 -0.23606491 C241.37610348 -0.24412132 242.35168473 -0.25217772 243.35682905 -0.26047826 C248.25007726 -0.2245046 251.74731398 -0.15384425 255.66239357 3.13142776 C257.86005837 6.42792496 257.91453448 7.40688784 257.92308998 11.23526382 C257.93017479 12.29090027 257.9372596 13.34653671 257.9445591 14.43416214 C257.94208168 15.5921431 257.93960426 16.75012405 257.93705177 17.94319534 C257.94471817 19.77282066 257.94471817 19.77282066 257.95253944 21.63940811 C257.96407147 24.98671558 257.96650664 28.33377569 257.96397614 31.68108582 C257.96290678 34.47667433 257.96778913 37.27223998 257.97258157 40.06782359 C257.98368174 46.66562112 257.98411193 53.26336173 257.9780674 59.86116409 C257.97203219 66.6622979 257.98432578 73.46322459 258.00563747 80.26432306 C258.02326957 86.10648059 258.02925212 91.9485723 258.02599972 97.79075545 C258.02418858 101.27857986 258.0268056 104.76625666 258.04071426 108.25405693 C258.0556554 112.14661232 258.04630834 116.03890549 258.03470802 119.93147659 C258.04235176 121.08338486 258.0499955 122.23529312 258.05787086 123.4221077 C258.02075693 129.05242264 257.94137202 133.31800063 254.66239357 138.13142776 C247.63571791 144.96291799 240.63973053 145.56781458 231.31107521 145.47200394 C229.62705101 145.47266106 229.62705101 145.47266106 227.90900612 145.47333145 C224.21334126 145.47124829 220.51813503 145.44793875 216.82254982 145.42439651 C214.25422857 145.4187989 211.68590411 145.41452958 209.11757851 145.41153336 C203.05805335 145.40126533 196.9987163 145.37764245 190.93926185 145.34748489 C184.03719837 145.31388372 177.13512682 145.29744055 170.23300183 145.28239858 C156.04271148 145.25109101 141.85255834 145.19836635 127.66239357 145.13142776 C128.48739357 145.75017776 129.31239357 146.36892776 130.16239357 147.00642776 C130.98739357 147.70767776 131.81239357 148.40892776 132.66239357 149.13142776 C132.66239357 149.79142776 132.66239357 150.45142776 132.66239357 151.13142776 C133.32239357 151.13142776 133.98239357 151.13142776 134.66239357 151.13142776 C134.66239357 151.79142776 134.66239357 152.45142776 134.66239357 153.13142776 C135.32239357 153.13142776 135.98239357 153.13142776 136.66239357 153.13142776 C138.21317482 154.70564651 138.21317482 154.70564651 139.97489357 156.81892776 C142.74524138 160.0768109 145.59600057 163.14572932 148.66239357 166.13142776 C149.42551857 166.91517776 150.18864357 167.69892776 150.97489357 168.50642776 C153.6802842 171.14890233 156.4968134 173.57968022 159.40458107 175.99470901 C161.32061696 177.80798174 162.98330386 179.63105603 164.69364357 181.63142776 C169.59911768 187.31210571 174.96171177 192.53785107 180.28739357 197.81892776 C181.32148398 198.84798729 182.35533959 199.87728283 183.38895607 200.90681839 C185.28937214 202.79915171 187.19136957 204.68983986 189.09452248 206.57942581 C193.3873732 210.84574723 197.65980768 215.13218767 201.92823219 219.42291641 C204.72595228 222.23409351 207.52638975 225.04255721 210.32694435 227.85091019 C211.79789802 229.32690025 213.26795394 230.80378555 214.7371006 232.28157425 C216.87386227 234.43054461 219.01390754 236.57619872 221.15458107 238.72127151 C222.12680107 239.70123344 222.12680107 239.70123344 223.11866188 240.70099258 C226.67837604 244.26113762 230.31796132 247.6380238 234.18909645 250.85818863 C236.13536349 252.54017343 237.77524814 254.40126138 239.41239357 256.38142776 C241.46831124 258.86005748 242.93283565 260.31172249 245.66239357 262.13142776 C245.66239357 262.79142776 245.66239357 263.45142776 245.66239357 264.13142776 C246.32239357 264.13142776 246.98239357 264.13142776 247.66239357 264.13142776 C249.79489315 266.92008106 250.62505171 268.81402193 251.03739357 272.31892776 C250.91364357 273.24705276 250.78989357 274.17517776 250.66239357 275.13142776 C247.34494398 277.34306082 246.30636848 277.38719285 242.44225502 277.40990067 C240.82055145 277.42664589 240.82055145 277.42664589 239.1660862 277.4437294 C237.97997749 277.44588959 236.79386879 277.44804977 235.5718174 277.45027542 C234.32292229 277.46032104 233.07402718 277.47036667 231.78728676 277.48071671 C228.36191752 277.50633541 224.93671442 277.52317421 221.51128793 277.53614473 C217.93178148 277.55176309 214.35235931 277.57855741 210.77291298 277.60417557 C203.99442841 277.65098636 197.21592802 277.68771929 190.43736428 277.72084844 C182.72033996 277.75905362 175.00340022 277.80846795 167.28644717 277.8588326 C151.41182375 277.96218664 135.53715293 278.0514357 119.66239357 278.13142776 C119.82435817 278.68731834 119.98632277 279.24320892 120.15319538 279.81594467 C120.70791224 282.33841537 120.79707205 284.59670121 120.80956459 287.17915726 C120.82029755 288.70590324 120.82029755 288.70590324 120.83124733 290.26349258 C120.83393623 291.37426666 120.83662514 292.48504074 120.83939552 293.62947464 C120.84596672 294.80381561 120.85253792 295.97815659 120.85930824 297.18808365 C120.87902598 301.07544177 120.89070057 304.9627864 120.90067482 308.85017776 C120.90472379 310.18985387 120.90884075 311.52952978 120.9130249 312.86920547 C120.93205816 319.16002984 120.94629662 325.45084256 120.95463687 331.74169016 C120.96442167 339.00165223 120.99078092 346.26131043 121.03113776 353.52116537 C121.06127777 359.13570208 121.07610346 364.7501515 121.07941788 370.36476755 C121.08176958 373.7173364 121.09074569 377.06957988 121.11587906 380.42206192 C121.14010771 384.15941796 121.13933535 387.89597112 121.13236427 391.63338089 C121.15157936 393.29954201 121.15157936 393.29954201 121.17118263 394.99936295 C121.16076691 396.52610893 121.16076691 396.52610893 121.15014076 398.08369827 C121.15252912 398.96711143 121.15491747 399.8505246 121.1573782 400.76070786 C120.50727466 403.87436699 119.03707121 405.10037799 116.66239357 407.13142776 C111.04904136 404.7118794 107.61433002 402.47934487 103.88895607 397.61970901 C102.71286999 395.9875817 102.71286999 395.9875817 100.66239357 395.13142776 C100.66239357 394.47142776 100.66239357 393.81142776 100.66239357 393.13142776 C100.00239357 393.13142776 99.34239357 393.13142776 98.66239357 393.13142776 C97.04129982 391.45174026 97.04129982 391.45174026 95.22489357 389.25642776 C93.07838473 386.66949055 91.49462795 385.01958402 88.66239357 383.13142776 C88.66239357 382.47142776 88.66239357 381.81142776 88.66239357 381.13142776 C88.00239357 381.13142776 87.34239357 381.13142776 86.66239357 381.13142776 C85.03739357 379.75642776 85.03739357 379.75642776 83.66239357 378.13142776 C83.66239357 377.47142776 83.66239357 376.81142776 83.66239357 376.13142776 C83.00239357 376.13142776 82.34239357 376.13142776 81.66239357 376.13142776 C80.22489357 374.63533401 80.22489357 374.63533401 78.66239357 372.69392776 C76.51714313 369.97954538 76.51714313 369.97954538 73.66239357 368.13142776 C73.66239357 367.47142776 73.66239357 366.81142776 73.66239357 366.13142776 C73.00239357 366.13142776 72.34239357 366.13142776 71.66239357 366.13142776 C70.19579506 364.64606094 70.19579506 364.64606094 68.49955177 362.60188675 C64.93104838 358.40775049 61.16643303 354.49024037 57.26786232 350.60408401 C56.2577182 349.59250481 56.2577182 349.59250481 55.22716713 348.56048965 C53.81918917 347.15183709 52.40997133 345.74442277 50.99955177 344.33821487 C48.83455753 342.17863004 46.67502101 340.01368894 44.51590919 337.84822464 C43.1418812 336.47485657 41.76754351 335.10179826 40.39286232 333.72908401 C39.74705711 333.08125458 39.10125191 332.43342514 38.43587685 331.76596451 C37.83797844 331.17121826 37.24008003 330.57647202 36.62406349 329.96370316 C35.83632797 329.17716103 35.83632797 329.17716103 35.0326786 328.37472916 C33.66221365 327.01891414 33.66221365 327.01891414 31.66239357 326.13142776 C31.66239357 325.47142776 31.66239357 324.81142776 31.66239357 324.13142776 C31.00239357 324.13142776 30.34239357 324.13142776 29.66239357 324.13142776 C28.03739357 322.75642776 28.03739357 322.75642776 26.66239357 321.13142776 C26.66239357 320.47142776 26.66239357 319.81142776 26.66239357 319.13142776 C26.00239357 319.13142776 25.34239357 319.13142776 24.66239357 319.13142776 C24.66239357 318.47142776 24.66239357 317.81142776 24.66239357 317.13142776 C24.00239357 317.13142776 23.34239357 317.13142776 22.66239357 317.13142776 C21.25663185 315.70442581 21.25663185 315.70442581 19.60770607 313.70564651 C15.49079194 308.86491449 11.05288857 304.41074828 6.53739357 299.94392776 C5.35983498 298.77313675 5.35983498 298.77313675 4.15848732 297.57869339 C0.12486148 293.56355459 0.12486148 293.56355459 -3.93428612 289.57429886 C-6.04763909 287.50352259 -7.68207106 285.61473081 -9.33760643 283.13142776 C-9.21385643 281.92486526 -9.21385643 281.92486526 -9.08760643 280.69392776 C-9.17010643 279.84830276 -9.25260643 279.00267776 -9.33760643 278.13142776 C-12.22549284 275.90058299 -12.22549284 275.90058299 -15.33760643 274.13142776 C-16.59979563 271.60704937 -16.47480302 269.85382574 -16.49150658 267.02722549 C-16.50440727 265.40580139 -16.50440727 265.40580139 -16.51756859 263.75162125 C-16.52182854 262.56042175 -16.52608849 261.36922226 -16.53047752 260.14192581 C-16.53865501 258.89145462 -16.5468325 257.64098343 -16.5552578 256.35261917 C-16.58014497 252.1994649 -16.59678537 248.04634708 -16.61104393 243.89314651 C-16.61640351 242.46372661 -16.62178102 241.03430678 -16.62717628 239.60488701 C-16.6488051 233.6591641 -16.66754205 227.71344391 -16.67879868 221.76769161 C-16.69503971 213.24508844 -16.72822046 204.72294106 -16.78519952 196.20050973 C-16.82389288 190.20893332 -16.84343059 184.21747886 -16.84871924 178.22578079 C-16.85237357 174.64672062 -16.86440217 171.06814654 -16.89682198 167.48922157 C-16.93247992 163.49557619 -16.92853344 159.50291094 -16.92110252 155.50911331 C-16.94571053 153.73142311 -16.94571053 153.73142311 -16.97081566 151.91781998 C-16.9349701 147.22339768 -16.84406342 144.04621221 -14.54804039 139.89903641 C-9.58982937 137.16913236 -4.96212914 137.4298778 0.61283302 137.47200394 C1.82300591 137.46152023 3.03317879 137.45103653 4.28002357 137.44023514 C7.58999981 137.41640115 10.89861092 137.41455338 14.20857072 137.42252898 C17.67066685 137.42565683 21.13255732 137.4006117 24.59456825 137.37857437 C31.14639274 137.34113963 37.69800968 137.32898675 44.24993056 137.32594997 C51.71070579 137.32125849 59.17127318 137.28833241 66.6319567 137.25305212 C81.97542067 137.18112715 97.31875987 137.14460242 112.66239357 137.13142776 C112.19957513 136.73929564 111.73675669 136.34716352 111.25991344 135.94314861 C105.50976637 130.99962812 100.13156341 125.74222525 94.7773838 120.37581253 C93.81241008 119.41219706 92.84722445 118.44879374 91.88184547 117.48558426 C89.2824962 114.89075885 86.68627798 112.29282247 84.09078288 109.69414258 C81.36095556 106.96176541 78.62866859 104.23184949 75.89678383 101.50152969 C71.31140259 96.91796252 66.72812174 92.33230303 62.14603615 87.74544144 C56.86514785 82.459112 51.58066703 77.17639437 46.29430622 71.89553791 C41.73765806 67.34344264 37.18298015 62.7893829 32.62991291 58.23370594 C29.91843124 55.52067344 27.20629803 52.80830152 24.49237823 50.09770775 C21.93982441 47.54806437 19.38977071 44.99594551 16.8415432 42.44197845 C15.47172783 41.07023227 14.09948101 39.70091542 12.72713661 38.33169937 C-9.12942396 16.40097873 -9.12942396 16.40097873 -10.33760643 6.13142776 C-9.15010643 3.25642776 -9.15010643 3.25642776 -7.33760643 1.13142776 C-4.54857583 0.2017509 -2.87991487 0.00465737 0 0 Z " fill="#0AA6FE" transform="translate(111.33760643005371,31.868572235107422)"/>
<path d="M0 0 C0.89115552 -0.00384115 1.78231105 -0.00768229 2.70047128 -0.01163983 C3.68051397 -0.01077335 4.66055667 -0.00990687 5.67029762 -0.00901413 C6.71063892 -0.01198525 7.75098022 -0.01495637 8.82284701 -0.01801753 C12.32584844 -0.02672293 15.82881576 -0.02821433 19.33182716 -0.02970505 C21.83644115 -0.03433187 24.34105443 -0.03935634 26.84566689 -0.04475021 C33.66172355 -0.05788813 40.47776894 -0.06435824 47.29383612 -0.06876087 C51.54880683 -0.07152285 55.80377526 -0.07576009 60.05874443 -0.08026505 C71.83694186 -0.09245726 83.61513746 -0.10275704 95.39334106 -0.10614014 C96.52415761 -0.10646949 96.52415761 -0.10646949 97.67781893 -0.10680549 C98.81135414 -0.10713291 98.81135414 -0.10713291 99.96778905 -0.10746694 C101.49912858 -0.1079104 103.03046811 -0.10835697 104.56180763 -0.10880661 C105.7012057 -0.10913875 105.7012057 -0.10913875 106.86362191 -0.10947761 C119.17558032 -0.11342678 131.48747959 -0.13088462 143.79941516 -0.15416613 C156.43646531 -0.17786981 169.07348578 -0.19034152 181.71055853 -0.19150805 C188.80723137 -0.19242531 195.90382712 -0.19819037 203.00047874 -0.21632767 C209.67349075 -0.23332207 216.34633131 -0.23498868 223.01936722 -0.22618866 C225.47158576 -0.22541558 227.92381202 -0.22979637 230.37601089 -0.23964691 C233.71769128 -0.2522857 237.0588461 -0.24653335 240.40052223 -0.23606491 C241.37610348 -0.24412132 242.35168473 -0.25217772 243.35682905 -0.26047826 C248.25007726 -0.2245046 251.74731398 -0.15384425 255.66239357 3.13142776 C257.86005837 6.42792496 257.91453448 7.40688784 257.92308998 11.23526382 C257.93017479 12.29090027 257.9372596 13.34653671 257.9445591 14.43416214 C257.94208168 15.5921431 257.93960426 16.75012405 257.93705177 17.94319534 C257.94471817 19.77282066 257.94471817 19.77282066 257.95253944 21.63940811 C257.96407147 24.98671558 257.96650664 28.33377569 257.96397614 31.68108582 C257.96290678 34.47667433 257.96778913 37.27223998 257.97258157 40.06782359 C257.98368174 46.66562112 257.98411193 53.26336173 257.9780674 59.86116409 C257.97203219 66.6622979 257.98432578 73.46322459 258.00563747 80.26432306 C258.02326957 86.10648059 258.02925212 91.9485723 258.02599972 97.79075545 C258.02418858 101.27857986 258.0268056 104.76625666 258.04071426 108.25405693 C258.0556554 112.14661232 258.04630834 116.03890549 258.03470802 119.93147659 C258.04235176 121.08338486 258.0499955 122.23529312 258.05787086 123.4221077 C258.02075693 129.05242264 257.94137202 133.31800063 254.66239357 138.13142776 C247.8931045 144.71268103 241.11536687 145.57476035 232.11234474 145.50374222 C230.55482742 145.50921822 230.55482742 145.50921822 228.96584511 145.51480484 C225.54551591 145.52288669 222.12566411 145.50931662 218.70536232 145.49470901 C216.31793658 145.49419001 213.93051041 145.49470928 211.5430851 145.49621964 C206.54234361 145.49613001 201.54176364 145.48572216 196.54105568 145.46760941 C190.14909341 145.4449598 183.75736779 145.44437264 177.36537647 145.45112705 C172.43498084 145.45447864 167.50463857 145.44781393 162.57425308 145.43799782 C160.21847056 145.43416327 157.86268208 145.43299032 155.50689697 145.43458366 C152.20469299 145.434957 148.90278521 145.42225795 145.60062599 145.40608597 C144.6376963 145.40856339 143.67476662 145.4110408 142.68265724 145.41359329 C120.51996498 145.24149174 108.65475811 134.28813996 93.6421299 119.24055862 C92.68671262 118.28650088 91.73108374 117.33265499 90.77526283 116.37900162 C88.21116295 113.81940927 85.65017433 111.25672609 83.0899241 108.6932838 C80.39347786 105.99428053 77.69456388 103.29774659 74.99605751 100.60080338 C70.46970875 96.07626601 65.94545455 91.54964229 61.42240334 87.02180862 C56.21077684 81.80473491 50.99554913 76.59128196 45.77844983 71.37968153 C41.27696268 66.88274707 36.77744548 62.38384851 32.27953929 57.88333231 C29.60273962 55.20498256 26.92529018 52.52729173 24.24605179 49.8513813 C21.72794399 47.33618394 19.21233645 44.81851129 16.69855499 42.29899025 C15.34784272 40.94634771 13.99469977 39.5961337 12.64145851 38.24602127 C-9.12952107 16.40015334 -9.12952107 16.40015334 -10.33760643 6.13142776 C-9.15010643 3.25642776 -9.15010643 3.25642776 -7.33760643 1.13142776 C-4.54857583 0.2017509 -2.87991487 0.00465737 0 0 Z " fill="#FCFDFD" transform="translate(111.33760643005371,31.868572235107422)"/>
<path d="M0 0 C0.99 0.495 0.99 0.495 2 1 C2.00331015 1.65268042 2.00662029 2.30536083 2.01003075 2.97781944 C2.09117319 18.84282992 2.18323658 34.70773346 2.28752708 50.57260704 C2.33769606 58.24467338 2.38413836 65.9167288 2.421875 73.58886719 C2.45476717 80.27418266 2.4945828 86.95941447 2.54279006 93.6446377 C2.56808284 97.18597417 2.58985575 100.72725494 2.60334396 104.26865768 C2.61851334 108.21745477 2.64913678 112.1660478 2.68115234 116.11474609 C2.68331253 117.29509933 2.68547272 118.47545258 2.68769836 119.6915741 C2.69886185 120.76292099 2.71002533 121.83426788 2.7215271 122.93807983 C2.72982324 124.34012696 2.72982324 124.34012696 2.73828697 125.77049828 C2.7904057 128.20363645 2.7904057 128.20363645 5 130 C6.98880335 130.29995542 6.98880335 130.29995542 9.30661201 130.24609566 C10.21627696 130.25007775 11.12594191 130.25405985 12.06317246 130.25816262 C13.06899333 130.25233693 14.07481421 130.24651125 15.1111145 130.24050903 C16.17454697 130.24221788 17.23797943 130.24392673 18.33363712 130.24568737 C21.92057131 130.24899894 25.50732114 130.23795115 29.09423828 130.22705078 C31.65607702 130.22648703 34.21791609 130.22680252 36.77975464 130.22793579 C42.30732725 130.2283922 47.83483979 130.22269523 53.36240005 130.21146011 C61.35437414 130.19522647 69.34632538 130.1899993 77.33831416 130.18748413 C90.30384346 130.18310367 103.26934763 130.16978505 116.23486328 130.15087891 C128.83186721 130.13252919 141.42886432 130.11836825 154.02587891 130.10986328 C154.80197231 130.10933783 155.57806571 130.10881239 156.3776771 130.10827102 C160.27099431 130.105661 164.16431157 130.10313357 168.05762887 130.10064721 C200.37177084 130.07990377 232.68588194 130.0446687 265 130 C264.67 131.32 264.34 132.64 264 134 C221.76 134.33 179.52 134.66 136 135 C136.33 136.32 136.66 137.64 137 139 C137.09514914 140.68060016 137.13902825 142.36445769 137.14717102 144.04772949 C137.15790398 145.57447548 137.15790398 145.57447548 137.16885376 147.13206482 C137.17154266 148.2428389 137.17423157 149.35361298 137.17700195 150.49804688 C137.18357315 151.67238785 137.19014435 152.84672882 137.19691467 154.05665588 C137.21663241 157.94401401 137.228307 161.83135863 137.23828125 165.71875 C137.24233022 167.05842611 137.24644718 168.39810202 137.25063133 169.73777771 C137.26966459 176.02860207 137.28390305 182.31941479 137.2922433 188.61026239 C137.3020281 195.87022447 137.32838735 203.12988266 137.36874419 210.38973761 C137.3988842 216.00427431 137.41370989 221.61872374 137.41702431 227.23333979 C137.41937601 230.58590863 137.42835212 233.93815212 137.45348549 237.29063416 C137.47771414 241.0279902 137.47694178 244.76454336 137.4699707 248.50195312 C137.48918579 250.16811424 137.48918579 250.16811424 137.50878906 251.86793518 C137.49837334 253.39468117 137.49837334 253.39468117 137.48774719 254.95227051 C137.49013555 255.83568367 137.4925239 256.71909683 137.49498463 257.62928009 C136.84488109 260.74293923 135.37467764 261.96895022 133 264 C127.38664779 261.58045164 123.95193645 259.34791711 120.2265625 254.48828125 C119.05047642 252.85615393 119.05047642 252.85615393 117 252 C117 251.34 117 250.68 117 250 C116.34 250 115.68 250 115 250 C113.37890625 248.3203125 113.37890625 248.3203125 111.5625 246.125 C109.41599116 243.53806278 107.83223438 241.88815626 105 240 C105 239.34 105 238.68 105 238 C104.34 238 103.68 238 103 238 C101.375 236.625 101.375 236.625 100 235 C100 234.34 100 233.68 100 233 C99.34 233 98.68 233 98 233 C96.5625 231.50390625 96.5625 231.50390625 95 229.5625 C92.85474956 226.84811762 92.85474956 226.84811762 90 225 C90 224.34 90 223.68 90 223 C89.34 223 88.68 223 88 223 C86.53340149 221.51463318 86.53340149 221.51463318 84.8371582 219.47045898 C81.26865481 215.27632273 77.50403946 211.35881261 73.60546875 207.47265625 C72.59532463 206.46107704 72.59532463 206.46107704 71.56477356 205.42906189 C70.1567956 204.02040932 68.74757776 202.61299501 67.3371582 201.20678711 C65.17216396 199.04720227 63.01262744 196.88226118 60.85351562 194.71679688 C59.47948763 193.3434288 58.10514994 191.97037049 56.73046875 190.59765625 C55.76176094 189.62591209 55.76176094 189.62591209 54.77348328 188.63453674 C54.17558487 188.0397905 53.57768646 187.44504425 52.96166992 186.83227539 C52.43651291 186.30791397 51.9113559 185.78355255 51.37028503 185.24330139 C49.99982008 183.88748638 49.99982008 183.88748638 48 183 C48 182.34 48 181.68 48 181 C47.34 181 46.68 181 46 181 C44.375 179.625 44.375 179.625 43 178 C43 177.34 43 176.68 43 176 C42.34 176 41.68 176 41 176 C41 175.34 41 174.68 41 174 C40.34 174 39.68 174 39 174 C37.59423828 172.57299805 37.59423828 172.57299805 35.9453125 170.57421875 C31.82839837 165.73348673 27.390495 161.27932051 22.875 156.8125 C22.08996094 156.03197266 21.30492188 155.25144531 20.49609375 154.44726562 C16.46246791 150.43212682 16.46246791 150.43212682 12.40332031 146.44287109 C10.28996734 144.37209483 8.65553537 142.48330305 7 140 C7.12375 138.7934375 7.12375 138.7934375 7.25 137.5625 C7.1675 136.716875 7.085 135.87125 7 135 C4.11211359 132.76915523 4.11211359 132.76915523 1 131 C-0.26949857 128.46100285 -0.12301472 126.70516579 -0.12025452 123.8621521 C-0.12162918 122.7739769 -0.12300385 121.6858017 -0.12442017 120.56465149 C-0.12082489 119.36559677 -0.11722961 118.16654205 -0.11352539 116.93115234 C-0.11374443 115.04339836 -0.11374443 115.04339836 -0.1139679 113.11750793 C-0.11425548 109.66111084 -0.10836508 106.20474826 -0.10139394 102.7483592 C-0.09515387 99.1382003 -0.09455608 95.52804066 -0.09336853 91.9178772 C-0.09025715 85.07911286 -0.08204634 78.24036446 -0.07201904 71.40160716 C-0.06085193 63.61694689 -0.05534594 55.83228586 -0.05032361 48.04761958 C-0.03986358 32.03173705 -0.02226785 16.01587056 0 0 Z " fill="#005CFC" transform="translate(95,175)"/>
<path d="M0 0 C3.33727786 1.17255709 5.77437487 2.18868404 8 5 C8 5.66 8 6.32 8 7 C8.66 7 9.32 7 10 7 C11.1642922 8.40399942 12.32395968 9.81207224 13.4609375 11.23828125 C15.09964419 13.11405972 16.8422889 14.65010683 18.75 16.25 C22.86915327 19.75400562 26.38895679 23.65495108 29.96484375 27.703125 C33.04223493 31.17626515 36.14876581 34.33792896 39.8125 37.1875 C40.534375 37.785625 41.25625 38.38375 42 39 C42 39.66 42 40.32 42 41 C42.556875 41.226875 43.11375 41.45375 43.6875 41.6875 C47.56813264 43.89002123 50.27533025 47.07151689 53 50.5625 C54.93088484 53.10672689 54.93088484 53.10672689 57.625 55 C60.27601443 57.23243321 60.75591848 58.84832681 62 62 C63.84971696 63.05021103 63.84971696 63.05021103 66 64 C67.68873879 65.64429829 69.35305515 67.31384218 71 69 C71.94875 69.763125 72.8975 70.52625 73.875 71.3125 C76.22425442 73.23171041 78.16417537 75.27389225 80.12158203 77.59033203 C84.2564961 82.3666627 88.69154169 86.79980679 93.1796875 91.2421875 C94.03305695 92.09177032 94.88642639 92.94135315 95.76565552 93.81668091 C98.4663433 96.5052412 101.17026368 99.19051304 103.875 101.875 C107.45857014 105.43205324 111.03886787 108.99235333 114.6171875 112.5546875 C115.44314423 113.37234589 116.26910095 114.19000427 117.12008667 115.03244019 C117.87822662 115.78727692 118.63636658 116.54211365 119.41748047 117.31982422 C120.08697723 117.98408417 120.756474 118.64834412 121.44625854 119.33273315 C123 121 123 121 124 123 C127.14229361 125.01560363 129.65509194 125.25264813 133.3447113 125.26069641 C134.42841003 125.26778122 135.51210876 125.27486603 136.62864685 125.28216553 C137.81265579 125.27968811 138.99666473 125.27721069 140.21655273 125.2746582 C142.0926976 125.2823246 142.0926976 125.2823246 144.00674438 125.29014587 C147.43449963 125.30166598 150.8620131 125.3041152 154.28977084 125.30158257 C157.15260742 125.30051249 160.01542172 125.30539717 162.87825352 125.310188 C169.63280122 125.32128127 176.3872933 125.3217216 183.1418457 125.31567383 C190.10718102 125.30963317 197.07231438 125.32194766 204.03761524 125.3432439 C210.02075247 125.36086372 216.00382543 125.36686067 221.98698765 125.36360615 C225.55915987 125.36179376 229.13118801 125.36442498 232.70333672 125.37832069 C236.68698927 125.39323748 240.67038488 125.38392552 244.65405273 125.37231445 C245.83603745 125.37995819 247.01802216 125.38760193 248.23582458 125.39547729 C249.32234314 125.38846298 250.40886169 125.38144867 251.52830505 125.3742218 C252.46979117 125.37438954 253.41127729 125.37455729 254.3812933 125.37473011 C257.49743587 124.92881822 259.42271718 123.76348976 262 122 C260.51470389 126.45588832 256.9357399 128.76642609 253 131 C250.105007 131.87991961 247.50485509 132.12722503 244.48617554 132.13371277 C243.58639984 132.13797775 242.68662415 132.14224274 241.75958252 132.14663696 C240.77979431 132.14618378 239.8000061 132.14573059 238.79052734 132.14526367 C237.23366714 132.15030159 237.23366714 132.15030159 235.64535522 132.15544128 C232.20887051 132.16495115 228.77243456 132.16689469 225.3359375 132.16796875 C222.94422384 132.17118227 220.55251037 132.17454641 218.16079712 132.17805481 C213.14218694 132.18404685 208.12359398 132.18589473 203.10498047 132.18530273 C196.68941428 132.18520133 190.2739593 132.198831 183.85841942 132.21607494 C178.9151662 132.22722336 173.97193958 132.22922104 169.02867508 132.22869301 C166.66451256 132.2298697 164.30034929 132.23427399 161.93619919 132.24202538 C158.61933496 132.25187866 155.30270831 132.24892568 151.98583984 132.24291992 C150.53437561 132.25134918 150.53437561 132.25134918 149.05358887 132.25994873 C126.87754647 132.15847857 114.99018933 121.15453193 99.97973633 106.10913086 C99.02431905 105.15507311 98.06869017 104.20122723 97.11286926 103.24757385 C94.54876938 100.68798151 91.98778076 98.12529833 89.42753053 95.56185603 C86.73108429 92.86285277 84.03217031 90.16631883 81.33366394 87.46937561 C76.80731518 82.94483825 72.28306098 78.41821452 67.76000977 73.89038086 C62.54838327 68.67330715 57.33315556 63.4598542 52.11605626 58.24825376 C47.61456911 53.75131931 43.11505191 49.25242075 38.61714572 44.75190455 C35.94034605 42.07355479 33.26289661 39.39586396 30.58365822 36.71995354 C28.06555042 34.20475617 25.54994288 31.68708352 23.03616142 29.16756248 C21.68544915 27.81491995 20.3323062 26.46470594 18.97906494 25.11459351 C0 6.07024391 0 6.07024391 0 0 Z " fill="#A7B0C8" transform="translate(105,45)"/>
<path d="M0 0 C0.99 0.495 0.99 0.495 2 1 C2.00331015 1.65268042 2.00662029 2.30536083 2.01003075 2.97781944 C2.09117319 18.84282992 2.18323658 34.70773346 2.28752708 50.57260704 C2.33769606 58.24467338 2.38413836 65.9167288 2.421875 73.58886719 C2.45476717 80.27418266 2.4945828 86.95941447 2.54279006 93.6446377 C2.56808284 97.18597417 2.58985575 100.72725494 2.60334396 104.26865768 C2.61851334 108.21745477 2.64913678 112.1660478 2.68115234 116.11474609 C2.68331253 117.29509933 2.68547272 118.47545258 2.68769836 119.6915741 C2.69886185 120.76292099 2.71002533 121.83426788 2.7215271 122.93807983 C2.72982324 124.34012696 2.72982324 124.34012696 2.73828697 125.77049828 C2.7904057 128.20363645 2.7904057 128.20363645 5 130 C6.98880335 130.29995542 6.98880335 130.29995542 9.30661201 130.24609566 C10.21627696 130.25007775 11.12594191 130.25405985 12.06317246 130.25816262 C13.06899333 130.25233693 14.07481421 130.24651125 15.1111145 130.24050903 C16.17454697 130.24221788 17.23797943 130.24392673 18.33363712 130.24568737 C21.92057131 130.24899894 25.50732114 130.23795115 29.09423828 130.22705078 C31.65607702 130.22648703 34.21791609 130.22680252 36.77975464 130.22793579 C42.30732725 130.2283922 47.83483979 130.22269523 53.36240005 130.21146011 C61.35437414 130.19522647 69.34632538 130.1899993 77.33831416 130.18748413 C90.30384346 130.18310367 103.26934763 130.16978505 116.23486328 130.15087891 C128.83186721 130.13252919 141.42886432 130.11836825 154.02587891 130.10986328 C154.80197231 130.10933783 155.57806571 130.10881239 156.3776771 130.10827102 C160.27099431 130.105661 164.16431157 130.10313357 168.05762887 130.10064721 C200.37177084 130.07990377 232.68588194 130.0446687 265 130 C264.67 131.32 264.34 132.64 264 134 C221.76 134.33 179.52 134.66 136 135 C136.33 136.32 136.66 137.64 137 139 C137.08729299 140.68977029 137.12200973 142.38262336 137.12025452 144.074646 C137.12231651 145.61006294 137.12231651 145.61006294 137.12442017 147.17649841 C137.12082489 148.29355667 137.11722961 149.41061493 137.11352539 150.56152344 C137.11367142 151.74228958 137.11381744 152.92305573 137.1139679 154.13960266 C137.11339088 157.37275108 137.10837784 160.60585615 137.10139394 163.83899593 C137.09513987 167.21958668 137.09455497 170.60017829 137.09336853 173.98077393 C137.09026128 180.38031421 137.08205604 186.7798374 137.07201904 193.17937016 C137.06083911 200.46589991 137.05534271 207.75243047 137.05032361 215.03896666 C137.03987293 230.02598729 137.0222852 245.01299194 137 260 C135.02 260.33 133.04 260.66 131 261 C131 260.34 131 259.68 131 259 C130.34 259 129.68 259 129 259 C129.33 258.01 129.66 257.02 130 256 C130.66 256 131.32 256 132 256 C132.72925226 252.72603804 133.12536902 249.69779252 133.12698364 246.34573364 C133.12980347 245.4402478 133.13262329 244.53476196 133.13552856 243.60183716 C133.13350433 242.62093109 133.1314801 241.64002502 133.12939453 240.62939453 C133.13114685 239.58652283 133.13289917 238.54365112 133.13470459 237.46917725 C133.13910364 234.02370537 133.1361915 230.57828489 133.1328125 227.1328125 C133.1334862 224.73534129 133.13445678 222.33787015 133.13571167 219.94039917 C133.13718609 214.91517486 133.13504264 209.88996833 133.13037109 204.86474609 C133.12468013 198.42988732 133.12795044 191.99507032 133.13394356 185.56021309 C133.13756129 180.60850715 133.13640489 175.65681107 133.13381577 170.70510483 C133.13314954 168.33288442 133.13396429 165.96066311 133.13629532 163.58844376 C133.13884101 160.26873666 133.13495389 156.94909665 133.12939453 153.62939453 C133.13243088 152.16410812 133.13243088 152.16410812 133.13552856 150.66921997 C133.13270874 149.75809448 133.12988892 148.84696899 133.12698364 147.90823364 C133.12660662 147.12475115 133.12622959 146.34126865 133.12584114 145.53404427 C132.96711934 142.33788711 132.45256189 139.16793322 132 136 C92.07 135.67 52.14 135.34 11 135 C11 134.34 11 133.68 11 133 C10.34 132.67 9.68 132.34 9 132 C8.67 132.99 8.34 133.98 8 135 C1.125 131.25 1.125 131.25 0 129 C-0.09310234 127.28944682 -0.12191771 125.5752363 -0.12025452 123.8621521 C-0.12162918 122.7739769 -0.12300385 121.6858017 -0.12442017 120.56465149 C-0.12082489 119.36559677 -0.11722961 118.16654205 -0.11352539 116.93115234 C-0.11374443 115.04339836 -0.11374443 115.04339836 -0.1139679 113.11750793 C-0.11425548 109.66111084 -0.10836508 106.20474826 -0.10139394 102.7483592 C-0.09515387 99.1382003 -0.09455608 95.52804066 -0.09336853 91.9178772 C-0.09025715 85.07911286 -0.08204634 78.24036446 -0.07201904 71.40160716 C-0.06085193 63.61694689 -0.05534594 55.83228586 -0.05032361 48.04761958 C-0.03986358 32.03173705 -0.02226785 16.01587056 0 0 Z " fill="#0241E6" transform="translate(95,175)"/>
<path d="M0 0 C0.99 0.495 0.99 0.495 2 1 C2.00331015 1.65268042 2.00662029 2.30536083 2.01003075 2.97781944 C2.09117319 18.84282992 2.18323658 34.70773346 2.28752708 50.57260704 C2.33769606 58.24467338 2.38413836 65.9167288 2.421875 73.58886719 C2.45476717 80.27418266 2.4945828 86.95941447 2.54279006 93.6446377 C2.56808284 97.18597417 2.58985575 100.72725494 2.60334396 104.26865768 C2.61851334 108.21745477 2.64913678 112.1660478 2.68115234 116.11474609 C2.68331253 117.29509933 2.68547272 118.47545258 2.68769836 119.6915741 C2.69886185 120.76292099 2.71002533 121.83426788 2.7215271 122.93807983 C2.72982324 124.34012696 2.72982324 124.34012696 2.73828697 125.77049828 C2.7904057 128.20363645 2.7904057 128.20363645 5 130 C6.98880335 130.29995542 6.98880335 130.29995542 9.30661201 130.24609566 C10.21627696 130.25007775 11.12594191 130.25405985 12.06317246 130.25816262 C13.06899333 130.25233693 14.07481421 130.24651125 15.1111145 130.24050903 C16.17454697 130.24221788 17.23797943 130.24392673 18.33363712 130.24568737 C21.92057131 130.24899894 25.50732114 130.23795115 29.09423828 130.22705078 C31.65607702 130.22648703 34.21791609 130.22680252 36.77975464 130.22793579 C42.30732725 130.2283922 47.83483979 130.22269523 53.36240005 130.21146011 C61.35437414 130.19522647 69.34632538 130.1899993 77.33831416 130.18748413 C90.30384346 130.18310367 103.26934763 130.16978505 116.23486328 130.15087891 C128.83186721 130.13252919 141.42886432 130.11836825 154.02587891 130.10986328 C154.80197231 130.10933783 155.57806571 130.10881239 156.3776771 130.10827102 C160.27099431 130.105661 164.16431157 130.10313357 168.05762887 130.10064721 C200.37177084 130.07990377 232.68588194 130.0446687 265 130 C264.67 131.32 264.34 132.64 264 134 C221.76 134 179.52 134 136 134 C136 133.67 136 133.34 136 133 C94.09 132.67 52.18 132.34 9 132 C8.67 132.99 8.34 133.98 8 135 C1.125 131.25 1.125 131.25 0 129 C-0.09310234 127.28944682 -0.12191771 125.5752363 -0.12025452 123.8621521 C-0.12162918 122.7739769 -0.12300385 121.6858017 -0.12442017 120.56465149 C-0.12082489 119.36559677 -0.11722961 118.16654205 -0.11352539 116.93115234 C-0.11374443 115.04339836 -0.11374443 115.04339836 -0.1139679 113.11750793 C-0.11425548 109.66111084 -0.10836508 106.20474826 -0.10139394 102.7483592 C-0.09515387 99.1382003 -0.09455608 95.52804066 -0.09336853 91.9178772 C-0.09025715 85.07911286 -0.08204634 78.24036446 -0.07201904 71.40160716 C-0.06085193 63.61694689 -0.05534594 55.83228586 -0.05032361 48.04761958 C-0.03986358 32.03173705 -0.02226785 16.01587056 0 0 Z " fill="#1E6CE9" transform="translate(95,175)"/>
<path d="M0 0 C3.33727786 1.17255709 5.77437487 2.18868404 8 5 C8 5.66 8 6.32 8 7 C8.66 7 9.32 7 10 7 C11.1642922 8.40399942 12.32395968 9.81207224 13.4609375 11.23828125 C15.09964419 13.11405972 16.8422889 14.65010683 18.75 16.25 C22.86915327 19.75400562 26.38895679 23.65495108 29.96484375 27.703125 C33.04223493 31.17626515 36.14876581 34.33792896 39.8125 37.1875 C40.534375 37.785625 41.25625 38.38375 42 39 C42 39.66 42 40.32 42 41 C42.556875 41.226875 43.11375 41.45375 43.6875 41.6875 C47.56813264 43.89002123 50.27533025 47.07151689 53 50.5625 C54.93088484 53.10672689 54.93088484 53.10672689 57.625 55 C60.27601443 57.23243321 60.75591848 58.84832681 62 62 C63.84971696 63.05021103 63.84971696 63.05021103 66 64 C67.68873879 65.64429829 69.35305515 67.31384218 71 69 C72.05430093 69.86426644 73.11689251 70.71851745 74.1875 71.5625 C76.67833681 73.72122523 77.87921554 74.97388196 79 78 C69.08952349 78 62.03855769 68.16980707 55.45825195 61.59719849 C54.36787407 60.50503017 53.27762663 59.41273161 52.1875 58.3203125 C51.04856681 57.18205442 49.90948534 56.0439447 48.77026367 54.90597534 C46.39176441 52.52894389 44.01506619 50.15013029 41.63964844 47.77001953 C38.61390137 44.7385823 35.58369478 41.71164897 32.55210876 38.68605232 C30.20124334 36.33882292 27.85279258 33.98918915 25.5050354 31.63885117 C24.38954796 30.52270251 23.27333352 29.40727986 22.15634155 28.29263687 C4.32502276 10.49059768 4.32502276 10.49059768 0 2 C0 1.34 0 0.68 0 0 Z " fill="#C6CCDC" transform="translate(105,45)"/>
<path d="M0 0 C0.33 0 0.66 0 1 0 C1.33 18.48 1.66 36.96 2 56 C6.75805963 57.9305587 6.75805963 57.9305587 11.44873238 58.24330235 C12.74626306 58.24835044 12.74626306 58.24835044 14.07000649 58.25350052 C15.0105692 58.24699272 15.95113192 58.24048492 16.92019653 58.23377991 C17.92690584 58.23478319 18.93361515 58.23578647 19.9708308 58.23682016 C23.34798266 58.23777364 26.72492696 58.22442365 30.10205078 58.21118164 C32.5215346 58.20898072 34.94101938 58.20767501 37.36050415 58.2071991 C42.57207598 58.20426418 47.78360023 58.19526662 52.99515152 58.18089485 C60.53342169 58.16020513 68.07166898 58.15153147 75.60996376 58.1459735 C87.84497163 58.13671987 100.07995272 58.11926531 112.31494141 58.09594727 C113.0470182 58.09455395 113.779095 58.09316064 114.53335594 58.0917251 C115.26636252 58.09032957 115.9993691 58.08893404 116.75458801 58.08749622 C127.15165618 58.06772007 137.54872526 58.04989311 147.94580078 58.03442383 C149.04348741 58.03278755 149.04348741 58.03278755 150.16334952 58.03111822 C162.35522272 58.01310916 174.54709862 57.99914249 186.73897922 57.98725218 C194.26083235 57.97965422 201.78265887 57.96789674 209.30449651 57.95079052 C215.06212423 57.93787788 220.8197504 57.92979848 226.57738876 57.92347908 C228.94337028 57.91999808 231.30934995 57.91477271 233.67532349 57.90771103 C236.8948186 57.89831048 240.11426378 57.89498965 243.33377075 57.89320374 C244.27879491 57.88892665 245.22381907 57.88464957 246.19748032 57.88024288 C247.05728528 57.88100053 247.91709025 57.88175819 248.80294991 57.8825388 C249.91811003 57.880343 249.91811003 57.880343 251.05579865 57.87810284 C253 58 253 58 256 59 C255.67 55.7 255.34 52.4 255 49 C254.01 48.67 253.02 48.34 252 48 C252 47.34 252 46.68 252 46 C250.68 46.33 249.36 46.66 248 47 C247.46987262 45.71211992 246.9511671 44.41953322 246.4375 43.125 C246.14746094 42.40570313 245.85742188 41.68640625 245.55859375 40.9453125 C245 39 245 39 246 37 C248.11051809 39.05632504 250.21337163 41.11960202 252.3125 43.1875 C253.20485352 44.0547168 253.20485352 44.0547168 254.11523438 44.93945312 C258.23091117 49.00914471 262.14694443 53.02861103 263 59 C261.45077183 60.54922817 259.99792487 60.12800091 257.84043312 60.13142776 C256.93809271 60.13526891 256.03575231 60.13911005 255.10606825 60.1430676 C254.10327185 60.14220112 253.10047544 60.14133463 252.06729126 60.14044189 C251.01091347 60.14341302 249.95453568 60.14638414 248.86614645 60.1494453 C245.29698693 60.15817444 241.72786078 60.15964408 238.15869141 60.16113281 C235.61171903 60.16575798 233.06474735 60.17078223 230.51777649 60.17617798 C223.57777269 60.18933241 216.63777997 60.19578904 209.69776583 60.20018864 C205.36744215 60.20294782 201.03712072 60.20718457 196.70679855 60.21169281 C184.72622887 60.22388805 172.74566098 60.23418683 160.76508522 60.2375679 C159.61410296 60.23789725 159.61410296 60.23789725 158.43986853 60.23823325 C157.67067148 60.23845153 156.90147443 60.23866981 156.10896838 60.2388947 C154.55018465 60.23933817 152.99140092 60.23978474 151.43261719 60.24023438 C150.65940039 60.2404558 149.8861836 60.24067723 149.089536 60.24090537 C136.55623788 60.2448547 124.02299787 60.26231166 111.48972221 60.2855939 C98.63352265 60.30928397 85.77735228 60.32176868 72.92113054 60.32293582 C65.69817784 60.32385391 58.47530083 60.32963972 51.25236893 60.34775543 C44.46119877 60.36472774 37.6701971 60.36642663 30.87900352 60.35761642 C28.38079507 60.35684221 25.88257909 60.36123889 23.38438988 60.37107468 C19.98497731 60.38367801 16.58608402 60.37798078 13.18667603 60.36749268 C12.18834106 60.37554908 11.1900061 60.38360548 10.16141856 60.39190602 C9.25386266 60.38531618 8.34630676 60.37872633 7.41124916 60.3719368 C6.62614987 60.37253389 5.84105058 60.37313097 5.0321604 60.37374616 C2.45864238 59.90043585 1.57097191 59.05946179 0 57 C-0.36076355 54.47529602 -0.36076355 54.47529602 -0.34057617 51.42700195 C-0.34034958 50.28604568 -0.34012299 49.14508942 -0.33988953 47.96955872 C-0.32440567 46.73823715 -0.30892181 45.50691559 -0.29296875 44.23828125 C-0.28872391 42.97735153 -0.28447906 41.71642181 -0.28010559 40.4172821 C-0.26614627 37.06825057 -0.23920104 33.71983242 -0.20599365 30.37097168 C-0.17528105 26.95244647 -0.16159776 23.53385785 -0.14648438 20.11523438 C-0.11337223 13.40998651 -0.06314018 6.70502867 0 0 Z " fill="#0783FE" transform="translate(97,246)"/>
<path d="M0 0 C0 0.99 0 1.98 0 3 C-2.7777867 5.54630448 -5.55862568 7.4705003 -9 9 C-9 8.34 -9 7.68 -9 7 C-9.66 7.33 -10.32 7.66 -11 8 C-13.03062006 8.09684859 -15.06448431 8.12796768 -17.09741211 8.12939453 C-18.38687744 8.13249634 -19.67634277 8.13559814 -21.00488281 8.13879395 C-22.42903671 8.1369868 -23.85319037 8.1349875 -25.27734375 8.1328125 C-26.74975614 8.13391115 -28.22216831 8.13534128 -29.69458008 8.13708496 C-33.63009569 8.13999202 -37.56556966 8.13569157 -41.50107956 8.12897491 C-43.93033598 8.12501169 -46.35959027 8.12249427 -48.78884888 8.12030029 C-85.0039052 8.08254934 -85.0039052 8.08254934 -101.9375 7.625 C-103.20779053 7.59422363 -104.47808105 7.56344727 -105.78686523 7.53173828 C-114.29602499 7.2499122 -122.58693453 6.25440538 -131 5 C-131 4.67 -131 4.34 -131 4 C-130.34916317 3.99761165 -129.69832634 3.99522329 -129.02776718 3.99276257 C-113.19540135 3.93364042 -97.36321188 3.85810841 -81.5310173 3.76428509 C-73.8746961 3.71930911 -66.2184216 3.67989867 -58.56201172 3.65356445 C-51.88909938 3.63059888 -45.21633462 3.59721717 -38.54353929 3.55129844 C-35.00993801 3.52734655 -31.47648306 3.50863076 -27.94280243 3.50238609 C-23.99913992 3.49522184 -20.05584443 3.46480392 -16.11230469 3.43237305 C-14.939142 3.43380814 -13.76597931 3.43524323 -12.55726624 3.4367218 C-11.48317001 3.42418365 -10.40907379 3.41164551 -9.3024292 3.39872742 C-8.3695747 3.39411845 -7.4367202 3.38950949 -6.47559738 3.38476086 C-3.57292351 2.93362317 -2.17683084 1.92436902 0 0 Z " fill="#CDD3E0" transform="translate(366,167)"/>
<path d="M0 0 C2.3420865 2.3420865 2.94368911 3.96627513 3.12304783 7.25884533 C3.12166514 8.59314067 3.12166514 8.59314067 3.12025452 9.95439148 C3.12162918 10.97662811 3.12300385 11.99886475 3.12442017 13.05207825 C3.12082489 14.17273178 3.11722961 15.29338531 3.11352539 16.44799805 C3.11367142 17.62861816 3.11381744 18.80923828 3.1139679 20.02563477 C3.11339024 23.26297442 3.10837183 26.50027095 3.10139394 29.737602 C3.09514648 33.12086789 3.0945555 36.50413462 3.09336853 39.8874054 C3.09025933 46.29406216 3.08205147 52.70070187 3.07201904 59.10735112 C3.06084516 66.40111269 3.05534423 73.69487506 3.05032361 80.98864305 C3.03986853 95.9924382 3.02227702 110.9962174 3 126 C0.03 126.495 0.03 126.495 -3 127 C-3 126.34 -3 125.68 -3 125 C-3.66 125 -4.32 125 -5 125 C-4.67 124.01 -4.34 123.02 -4 122 C-3.34 122 -2.68 122 -2 122 C-1.24821224 118.65064419 -0.87722498 115.5658807 -0.88647461 112.13572693 C-0.8865451 111.18383484 -0.8866156 110.23194275 -0.88668823 109.25120544 C-0.89185455 108.21883255 -0.89702087 107.18645966 -0.90234375 106.12280273 C-0.90380402 105.0263443 -0.90526428 103.92988586 -0.9067688 102.80020142 C-0.91057099 100.42228685 -0.91668355 98.04437511 -0.92483521 95.66647148 C-0.93759561 91.90541391 -0.94411351 88.14439158 -0.94897461 84.38331604 C-0.96040442 76.40136144 -0.97959992 68.4194352 -1 60.4375 C-1.02363874 51.18546499 -1.04397468 41.93344274 -1.05593872 32.68138313 C-1.0624326 28.97209078 -1.07494002 25.26284914 -1.08764648 21.55357361 C-1.09127828 19.28498377 -1.0946301 17.01639346 -1.09765625 14.74780273 C-1.10282257 13.71340561 -1.10798889 12.67900848 -1.11331177 11.61326599 C-1.11338226 10.66419373 -1.11345276 9.71512146 -1.11352539 8.73728943 C-1.115746 7.91416984 -1.11796661 7.09105024 -1.12025452 6.24298763 C-1.00193093 4.03601575 -0.61277913 2.11831278 0 0 Z " fill="#2B58DC" transform="translate(229,309)"/>
<path d="M0 0 C1.98 0.99 1.98 0.99 4 2 C4 2.66 4 3.32 4 4 C5.61068359 4.19916016 5.61068359 4.19916016 7.25390625 4.40234375 C8.69010833 4.58069564 10.12630601 4.75908295 11.5625 4.9375 C12.26697266 5.02451172 12.97144531 5.11152344 13.69726562 5.20117188 C14.39658203 5.28818359 15.09589844 5.37519531 15.81640625 5.46484375 C16.45006104 5.543396 17.08371582 5.62194824 17.73657227 5.70288086 C19.56264185 5.94258819 21.38432701 6.21556068 23.20413208 6.49893188 C26.82847678 6.97735832 30.34487195 7.20259801 33.99731445 7.31420898 C34.65991209 7.33486734 35.32250973 7.3555257 36.00518608 7.37681007 C38.18693783 7.44252991 40.36879529 7.50120553 42.55078125 7.55859375 C43.31167871 7.57965117 44.07257618 7.60070858 44.85653114 7.6224041 C62.497311 8.10326455 80.13376957 8.11894567 97.77972412 8.06866455 C101.89155523 8.05813716 106.00339347 8.05380637 110.11523438 8.04882812 C118.07684103 8.03833868 126.03841532 8.021448 134 8 C134 8.66 134 9.32 134 10 C131.19773584 10.93408805 129.50317904 11.12749444 126.60643005 11.13371277 C125.70802902 11.13797775 124.80962799 11.14224274 123.88400269 11.14663696 C122.9006192 11.14618378 121.91723572 11.14573059 120.90405273 11.14526367 C119.34741158 11.15030159 119.34741158 11.15030159 117.75932312 11.15544128 C114.31740124 11.16496426 110.87552799 11.16689544 107.43359375 11.16796875 C105.04045084 11.17118168 102.64730814 11.17454578 100.25416565 11.17805481 C95.22957911 11.18405035 90.20500978 11.1858944 85.18041992 11.18530273 C78.75697798 11.18520138 72.33364724 11.19882392 65.91023159 11.21607494 C60.96268716 11.22722425 56.0151693 11.229221 51.0676136 11.22869301 C48.70066 11.22986985 46.33370565 11.23427494 43.96676445 11.24202538 C40.64500164 11.25187913 37.32347604 11.24892535 34.00170898 11.24291992 C32.54788818 11.25134918 32.54788818 11.25134918 31.06469727 11.25994873 C22.66884929 11.2215926 14.6965757 10.13768135 7 6.625 C6.0925 6.22539062 5.185 5.82578125 4.25 5.4140625 C1.75729778 3.84746839 1.01841924 2.71964228 0 0 Z " fill="#99A3BC" transform="translate(223,166)"/>
<path d="M0 0 C0.99 0.495 0.99 0.495 2 1 C2.00331015 1.65083683 2.00662029 2.30167366 2.01003075 2.97223282 C2.0912319 18.8045637 2.18331482 34.63678816 2.28752708 50.4689827 C2.33766051 58.12529754 2.38410333 65.78160165 2.421875 73.43798828 C2.45480404 80.11087077 2.49464028 86.78367005 2.54279006 93.45646071 C2.56804603 96.99003603 2.58982993 100.52355621 2.60334396 104.05719757 C2.6185552 108.00079706 2.64918646 111.94419425 2.68115234 115.88769531 C2.68331253 117.060858 2.68547272 118.23402069 2.68769836 119.44273376 C2.69886185 120.51682999 2.71002533 121.59092621 2.7215271 122.6975708 C2.72705786 123.6304253 2.73258862 124.5632798 2.73828697 125.52440262 C3.01252771 128.11850221 3.68536124 129.76754121 5 132 C6.32 132 7.64 132 9 132 C8.67 132.99 8.34 133.98 8 135 C1.125 131.25 1.125 131.25 0 129 C-0.09310234 127.28944682 -0.12191771 125.5752363 -0.12025452 123.8621521 C-0.12162918 122.7739769 -0.12300385 121.6858017 -0.12442017 120.56465149 C-0.12082489 119.36559677 -0.11722961 118.16654205 -0.11352539 116.93115234 C-0.11374443 115.04339836 -0.11374443 115.04339836 -0.1139679 113.11750793 C-0.11425548 109.66111084 -0.10836508 106.20474826 -0.10139394 102.7483592 C-0.09515387 99.1382003 -0.09455608 95.52804066 -0.09336853 91.9178772 C-0.09025715 85.07911286 -0.08204634 78.24036446 -0.07201904 71.40160716 C-0.06085193 63.61694689 -0.05534594 55.83228586 -0.05032361 48.04761958 C-0.03986358 32.03173705 -0.02226785 16.01587056 0 0 Z " fill="#4A92DB" transform="translate(95,175)"/>
<path d="M0 0 C1.54597618 -0.00412399 1.54597618 -0.00412399 3.1231842 -0.0083313 C4.25318848 -0.00114075 5.38319275 0.0060498 6.54743958 0.01345825 C8.33300011 0.01302017 8.33300011 0.01302017 10.15463257 0.01257324 C13.41888201 0.01372861 16.68296043 0.02376557 19.94717574 0.03772116 C23.35846321 0.05021574 26.76975397 0.05139801 30.18106079 0.05377197 C36.64086579 0.05999049 43.10060316 0.07640632 49.56037837 0.09647095 C56.91459112 0.1188184 64.26880708 0.12982047 71.62304533 0.13986182 C86.75128279 0.16077224 101.87945696 0.19595542 117.00764465 0.24050903 C113.76502988 2.40225222 112.90577006 2.48896414 109.16714478 2.48101807 C107.67165352 2.48514206 107.67165352 2.48514206 106.14595032 2.48934937 C105.053349 2.48215881 103.96074768 2.47496826 102.83503723 2.46755981 C101.10799812 2.46799789 101.10799812 2.46799789 99.34606934 2.46844482 C95.53136216 2.46704883 91.71684906 2.45147474 87.9021759 2.43582153 C85.26087552 2.43209237 82.61957375 2.42924494 79.97827148 2.42724609 C73.73096118 2.42102796 67.48372081 2.40461267 61.23644131 2.38454711 C54.12406226 2.36219845 47.01167989 2.35119729 39.89927447 2.34115624 C25.26869511 2.32024672 10.63817086 2.28506428 -3.99235535 2.24050903 C-3.99235535 2.90050903 -3.99235535 3.56050903 -3.99235535 4.24050903 C-5.64235535 4.57050903 -7.29235535 4.90050903 -8.99235535 5.24050903 C-7.35426041 0.32622422 -4.72537766 -0.00971301 0 0 Z " fill="#5EA4DA" transform="translate(104.99235534667969,169.75949096679688)"/>
<path d="M0 0 C3.45564479 1.84978633 5.48354314 4.02465755 7.75 7.25 C8.74 7.745 8.74 7.745 9.75 8.25 C9.75 8.91 9.75 9.57 9.75 10.25 C10.74 10.745 10.74 10.745 11.75 11.25 C12.01554688 11.82234375 12.28109375 12.3946875 12.5546875 12.984375 C14.17346328 16.05264281 16.39614378 18.08470419 18.875 20.5 C19.78507813 21.39203125 20.69515625 22.2840625 21.6328125 23.203125 C22.33148438 23.87859375 23.03015625 24.5540625 23.75 25.25 C20.75 25.25 20.75 25.25 18.34570312 23.15454102 C17.40011757 22.1949323 16.46245271 21.22747825 15.53125 20.25390625 C15.03210083 19.74576889 14.53295166 19.23763153 14.01867676 18.71409607 C12.42182426 17.08717698 10.83520256 15.45076674 9.25 13.8125 C7.663979 12.17867255 6.07582566 10.54716863 4.48132324 8.9216156 C3.48893344 7.90945369 2.50151417 6.89238922 1.51965332 5.87001038 C-1.40889181 2.87754651 -3.32932072 1.36246309 -7.61816692 1.1113348 C-8.55931756 1.10488225 -9.5004682 1.0984297 -10.47013855 1.09178162 C-12.09184212 1.07709839 -12.09184212 1.07709839 -13.74630737 1.06211853 C-15.52547043 1.05348534 -15.52547043 1.05348534 -17.34057617 1.04467773 C-18.58947128 1.03477814 -19.83836639 1.02487854 -21.12510681 1.01467896 C-24.55043467 0.9884828 -27.97573911 0.96662422 -31.40110564 0.94667697 C-34.98058949 0.92481228 -38.56003094 0.89742595 -42.13948059 0.87062073 C-48.91797363 0.82070038 -55.69649021 0.77575911 -62.47502929 0.73259836 C-70.19202955 0.68322037 -77.90898728 0.62830432 -85.6259464 0.57291877 C-101.50059163 0.45910882 -117.37527597 0.35226763 -133.25 0.25 C-133.25 -0.08 -133.25 -0.41 -133.25 -0.75 C-132.34193745 -0.75634791 -132.34193745 -0.75634791 -131.4155302 -0.76282406 C-116.69349914 -0.86607528 -101.97151459 -0.97470476 -87.24956799 -1.08933926 C-80.13018117 -1.14464531 -73.01078933 -1.19812301 -65.89135742 -1.24731445 C-59.0249026 -1.29476307 -52.15850166 -1.34728305 -45.29210854 -1.40294075 C-42.66818821 -1.42337214 -40.04425393 -1.4420839 -37.42030907 -1.45907402 C-33.75435704 -1.48310055 -30.08850159 -1.51315771 -26.42260742 -1.54467773 C-25.3300061 -1.5504332 -24.23740479 -1.55618866 -23.11169434 -1.56211853 C-22.11470016 -1.57190735 -21.11770599 -1.58169617 -20.09049988 -1.59178162 C-19.22309268 -1.59823417 -18.35568548 -1.60468672 -17.46199322 -1.6113348 C-5.16045863 -2.38249211 -5.16045863 -2.38249211 0 0 Z " fill="#1899E0" transform="translate(234.25,172.75)"/>
<path d="M0 0 C12.87 0 25.74 0 39 0 C39 0.33 39 0.66 39 1 C26.79 1 14.58 1 2 1 C2 1.66 2 2.32 2 3 C41.93 3 81.86 3 123 3 C123 3.33 123 3.66 123 4 C82.74 4.33 42.48 4.66 1 5 C1.33 5.99 1.66 6.98 2 8 C2.99 8.33 3.98 8.66 5 9 C6.25 11.375 6.25 11.375 7 14 C6.67 14.99 6.34 15.98 6 17 C-1.91118421 9.30263158 -1.91118421 9.30263158 -2.1875 5.25 C-2.125625 4.5075 -2.06375 3.765 -2 3 C-1.34 3 -0.68 3 0 3 C0 2.01 0 1.02 0 0 Z " fill="#0158FA" transform="translate(104,307)"/>
<path d="M0 0 C24.09 0.33 48.18 0.66 73 1 C73 1.33 73 1.66 73 2 C96.265 2.495 96.265 2.495 120 3 C120 3.33 120 3.66 120 4 C49.76713496 4.19513431 49.76713496 4.19513431 29.0625 3.625 C27.79237061 3.59414307 26.52224121 3.56328613 25.21362305 3.53149414 C16.704279 3.25028531 8.41320575 2.2544263 0 1 C0 0.67 0 0.34 0 0 Z " fill="#AEB8CF" transform="translate(235,171)"/>
<path d="M0 0 C5.87890931 4.8726809 11.2552567 10.13822024 16.625 15.5625 C17.45773437 16.39974609 18.29046875 17.23699219 19.1484375 18.09960938 C20.69990397 19.65972255 22.25033223 21.22086947 23.79931641 22.78344727 C25.30417779 24.29916021 26.81196871 25.81196871 28.32226562 27.32226562 C30.9744252 29.9744252 33.62060175 32.63242935 36.26583862 35.29148865 C39.06355871 38.10266575 41.86399618 40.91112944 44.66455078 43.71948242 C46.13550445 45.19547249 47.60556037 46.67235778 49.07470703 48.15014648 C51.2114687 50.29911685 53.35151397 52.44477096 55.4921875 54.58984375 C56.4644075 55.56980568 56.4644075 55.56980568 57.45626831 56.56956482 C61.01598247 60.12970986 64.65556775 63.50659604 68.52670288 66.72676086 C70.47296992 68.40874567 72.11285457 70.26983362 73.75 72.25 C75.80591767 74.72862971 77.27044208 76.18029472 80 78 C80 78.66 80 79.32 80 80 C80.66 80 81.32 80 82 80 C84.84450614 83.71973879 85.3227506 86.37390802 85 91 C84.34 91 83.68 91 83 91 C82.690625 89.7625 82.690625 89.7625 82.375 88.5 C79.33816427 80.76987269 73.26577808 74.98181789 67.43408203 69.23876953 C66.70168808 68.50929611 65.96929413 67.77982269 65.21470642 67.02824402 C63.63734625 65.45844719 62.05768145 63.89096328 60.47592545 62.32559586 C57.97548512 59.85081688 55.48146449 57.36972551 52.98898315 54.88693237 C47.70658875 49.62730635 42.41634777 44.37561652 37.125 39.125 C30.97174224 33.01890321 24.82172145 26.90961838 18.68001938 20.79189682 C16.21772506 18.34260669 13.74950728 15.89939217 11.28103638 13.45632935 C9.78358202 11.96613451 8.28640465 10.47566128 6.78955078 8.98486328 C6.09767166 8.3033168 5.40579254 7.62177032 4.69294739 6.91957092 C4.07055679 6.29732132 3.4481662 5.67507172 2.80691528 5.03396606 C2.2616324 4.49312441 1.71634953 3.95228275 1.15454292 3.39505196 C0 2 0 2 0 0 Z " fill="#73A9E8" transform="translate(277,216)"/>
<path d="M0 0 C2 2 2 2 2 5 C2.66 5 3.32 5 4 5 C4 5.66 4 6.32 4 7 C5.98 7.66 7.96 8.32 10 9 C10 10.32 10 11.64 10 13 C10.556875 13.061875 11.11375 13.12375 11.6875 13.1875 C14.99068042 14.3480769 16.71894733 16.40213446 19 19 C19 19.66 19 20.32 19 21 C19.99 21 20.98 21 22 21 C22 21.99 22 22.98 22 24 C22.99 24 23.98 24 25 24 C25.33 25.65 25.66 27.3 26 29 C26.66 29 27.32 29 28 29 C28 29.99 28 30.98 28 32 C28.66 32 29.32 32 30 32 C31.625 34 31.625 34 33 36 C32.01 36.495 32.01 36.495 31 37 C30.01 36.505 30.01 36.505 29 36 C29 35.34 29 34.68 29 34 C28.34 34 27.68 34 27 34 C25.71069336 32.68945312 25.71069336 32.68945312 24.15234375 30.78125 C18.96677695 24.68279758 13.24072203 19.1338413 7.5625 13.5 C6.4379167 12.38044368 5.31356595 11.26065371 4.18945312 10.140625 C1.46230656 7.42438466 -1.26795907 4.71131708 -4 2 C-2.68 1.34 -1.36 0.68 0 0 Z " fill="#2958E1" transform="translate(156,364)"/>
<path d="M0 0 C3.33727786 1.17255709 5.77437487 2.18868404 8 5 C8 5.66 8 6.32 8 7 C8.66 7 9.32 7 10 7 C11.1642922 8.40399942 12.32395968 9.81207224 13.4609375 11.23828125 C15.09964419 13.11405972 16.8422889 14.65010683 18.75 16.25 C22.85506602 19.74086106 26.37587849 23.61813461 29.921875 27.66796875 C31.87692657 29.86188941 33.90143205 31.94397059 36 34 C34.1875 34.6875 34.1875 34.6875 32 35 C30.25 33.6875 30.25 33.6875 29 32 C29 31.34 29 30.68 29 30 C28.17435547 29.66355469 28.17435547 29.66355469 27.33203125 29.3203125 C19.93569719 25.13277328 9.71537631 14.54097086 5.94140625 6.83984375 C5.13832744 4.82227386 5.13832744 4.82227386 3 4 C2.67 4.66 2.34 5.32 2 6 C1.34 4.02 0.68 2.04 0 0 Z " fill="#DADDE7" transform="translate(105,45)"/>
<path d="M0 0 C0.53625 0.28875 1.0725 0.5775 1.625 0.875 C3.9825187 2.09864733 3.9825187 2.09864733 6.65625 2.59375 C11.43059167 4.6016507 14.34210086 7.91408656 17.875 11.625 C18.56335938 12.33140625 19.25171875 13.0378125 19.9609375 13.765625 C21.65007434 15.50168231 23.32913151 17.24638373 25 19 C22 21 22 21 20.08300781 20.87280273 C17.34539717 19.72571436 15.76544779 18.13724137 13.671875 16.03515625 C12.87265625 15.23529297 12.0734375 14.43542969 11.25 13.61132812 C10.425 12.77021484 9.6 11.92910156 8.75 11.0625 C7.90953125 10.22525391 7.0690625 9.38800781 6.203125 8.52539062 C0 2.26688058 0 2.26688058 0 0 Z " fill="#B8C0D1" transform="translate(176,120)"/>
<path d="M0 0 C1.98 0.99 1.98 0.99 4 2 C4 2.66 4 3.32 4 4 C5.09699219 4.12117187 6.19398438 4.24234375 7.32421875 4.3671875 C8.77868823 4.53609363 10.23311304 4.70538481 11.6875 4.875 C12.40873047 4.95363281 13.12996094 5.03226563 13.87304688 5.11328125 C14.93168945 5.23896484 14.93168945 5.23896484 16.01171875 5.3671875 C16.97791138 5.47716064 16.97791138 5.47716064 17.96362305 5.58935547 C20 6 20 6 22.34960938 7.01367188 C25.47595143 8.17712268 28.06345351 8.31933991 31.39453125 8.4140625 C32.59658203 8.45273438 33.79863281 8.49140625 35.03710938 8.53125 C36.90592773 8.57765625 36.90592773 8.57765625 38.8125 8.625 C40.07771484 8.66367188 41.34292969 8.70234375 42.64648438 8.7421875 C45.76417851 8.83630657 48.88186914 8.92194361 52 9 C52 9.66 52 10.32 52 11 C48.05309997 11.05003872 44.10632691 11.08601633 40.15917969 11.10986328 C38.16855363 11.12467591 36.17801563 11.15010992 34.1875 11.17578125 C24.5569013 11.22442064 15.85562712 10.66666703 7 6.625 C6.0925 6.22539062 5.185 5.82578125 4.25 5.4140625 C1.75729778 3.84746839 1.01841924 2.71964228 0 0 Z " fill="#8E9BB7" transform="translate(223,166)"/>
<path d="M0 0 C17.49 0 34.98 0 53 0 C53 0.66 53 1.32 53 2 C51.02 2.99 51.02 2.99 49 4 C49 3.34 49 2.68 49 2 C32.5 2 16 2 -1 2 C-0.67 1.34 -0.34 0.68 0 0 Z " fill="#C0C7D8" transform="translate(308,172)"/>
<path d="M0 0 C3.7961351 1.26537837 4.15494755 2.55055411 6 6 C6.33 6.7425 6.66 7.485 7 8.25 C7.94279946 10.35137474 7.94279946 10.35137474 11 11 C12.54296875 12.6015625 12.54296875 12.6015625 14.1875 14.625 C16.64915956 17.53848315 19.14908863 20.1011697 22.0625 22.5625 C25.7486671 25.69538276 29.22351413 29.01406006 32 33 C32 33.66 32 34.32 32 35 C28.56069417 33.51873643 26.33045662 31.57572554 23.69921875 28.9296875 C22.88646484 28.115 22.07371094 27.3003125 21.23632812 26.4609375 C19.9746582 25.18089844 19.9746582 25.18089844 18.6875 23.875 C17.85798828 23.04484375 17.02847656 22.2146875 16.17382812 21.359375 C0 5.0706578 0 5.0706578 0 0 Z " fill="#AEB2C7" transform="translate(108,49)"/>
<path d="M0 0 C6.28382953 1.54575486 10.45181059 4.21733022 14.19140625 9.5390625 C14.85140625 9.8690625 15.51140625 10.1990625 16.19140625 10.5390625 C16.19140625 11.1990625 16.19140625 11.8590625 16.19140625 12.5390625 C16.85140625 12.8690625 17.51140625 13.1990625 18.19140625 13.5390625 C18.45695312 14.11140625 18.7225 14.68375 18.99609375 15.2734375 C20.61486953 18.34170531 22.83755003 20.37376669 25.31640625 22.7890625 C26.22648437 23.68109375 27.1365625 24.573125 28.07421875 25.4921875 C28.77289063 26.16765625 29.4715625 26.843125 30.19140625 27.5390625 C27.19140625 27.5390625 27.19140625 27.5390625 24.80297852 25.45947266 C23.86382401 24.50628988 22.93259266 23.54526008 22.0078125 22.578125 C21.511035 22.07235931 21.01425751 21.56659363 20.50242615 21.04550171 C18.91229098 19.42530158 17.33237784 17.79562224 15.75390625 16.1640625 C14.17821072 14.54048738 12.60035868 12.91926705 11.01609802 11.30404663 C10.03031221 10.29856445 9.04949125 9.28818406 8.07435608 8.27236938 C4.07778 4.18854898 1.10402646 2.41370546 -4.55859375 1.9140625 C-5.3578125 1.83929688 -6.15703125 1.76453125 -6.98046875 1.6875 C-7.58375 1.63851562 -8.18703125 1.58953125 -8.80859375 1.5390625 C-5.41826257 -0.72115829 -3.93070934 -0.62254328 0 0 Z " fill="#2576D0" transform="translate(227.80859375,170.4609375)"/>
<path d="M0 0 C4.7312253 1.49407115 4.7312253 1.49407115 6.0625 4 C6.371875 4.66 6.68125 5.32 7 6 C9.00965298 7.20579179 10.99263063 7.99726281 13.1875 8.8125 C15 10 15 10 15.75 12.625 C15.87375 13.800625 15.87375 13.800625 16 15 C17.65 15 19.3 15 21 15 C21.33 16.65 21.66 18.3 22 20 C23.32 20 24.64 20 26 20 C26 21.98 26 23.96 26 26 C23.96166576 24.7260411 21.96147874 23.38938077 20 22 C20 21.34 20 20.68 20 20 C19.34 20 18.68 20 18 20 C16.37890625 18.3203125 16.37890625 18.3203125 14.5625 16.125 C12.41599116 13.53806278 10.83223438 11.88815626 8 10 C8 9.34 8 8.68 8 8 C7.34 8 6.68 8 6 8 C4.375 6.625 4.375 6.625 3 5 C3 4.34 3 3.68 3 3 C2.34 3 1.68 3 1 3 C0.67 2.01 0.34 1.02 0 0 Z " fill="#365FDD" transform="translate(192,405)"/>
<path d="M0 0 C16.47942755 13.78890877 16.47942755 13.78890877 18 22 C15.69 22 13.38 22 11 22 C10.67 18.7 10.34 15.4 10 12 C9.01 11.67 8.02 11.34 7 11 C7 10.34 7 9.68 7 9 C5.68 9.33 4.36 9.66 3 10 C2.49596232 8.70990357 1.99690074 7.41786211 1.5 6.125 C1.2215625 5.40570313 0.943125 4.68640625 0.65625 3.9453125 C0 2 0 2 0 0 Z " fill="#078BFA" transform="translate(342,283)"/>
<path d="M0 0 C12.87 0 25.74 0 39 0 C39 0.33 39 0.66 39 1 C26.79 1 14.58 1 2 1 C2 3.31 2 5.62 2 8 C2.99 8.33 3.98 8.66 5 9 C6.25 11.375 6.25 11.375 7 14 C6.67 14.99 6.34 15.98 6 17 C-1.91118421 9.30263158 -1.91118421 9.30263158 -2.1875 5.25 C-2.125625 4.5075 -2.06375 3.765 -2 3 C-1.34 3 -0.68 3 0 3 C0 2.01 0 1.02 0 0 Z " fill="#0045ED" transform="translate(104,307)"/>
<path d="M0 0 C1.98 0 3.96 0 6 0 C6.268125 0.61875 6.53625 1.2375 6.8125 1.875 C7.95556848 4.2995233 7.95556848 4.2995233 11 6 C10.67 6.99 10.34 7.98 10 9 C11.65 9 13.3 9 15 9 C15 10.32 15 11.64 15 13 C16.32 13 17.64 13 19 13 C19 14.65 19 16.3 19 18 C19.99 18.33 20.98 18.66 22 19 C22 19.99 22 20.98 22 22 C21.34 22 20.68 22 20 22 C20 21.34 20 20.68 20 20 C19.34 20 18.68 20 18 20 C16.375 18.625 16.375 18.625 15 17 C15 16.34 15 15.68 15 15 C14.34 15 13.68 15 13 15 C13 14.34 13 13.68 13 13 C12.34 13 11.68 13 11 13 C9.4140625 11.42578125 9.4140625 11.42578125 7.625 9.3125 C6.69880859 8.22388672 6.69880859 8.22388672 5.75390625 7.11328125 C3.80538537 4.76550888 1.8784002 2.40435225 0 0 Z " fill="#426BE1" transform="translate(123,336)"/>
<path d="M0 0 C0.33 0 0.66 0 1 0 C1.00808685 0.57993713 1.01617371 1.15987427 1.02450562 1.75738525 C1.11054692 7.79209363 1.21005044 13.82647337 1.31738281 19.86083984 C1.35567157 22.11306236 1.39052461 24.365346 1.421875 26.61767578 C1.46752737 29.85471447 1.52552215 33.09133236 1.5859375 36.328125 C1.59748871 37.33554749 1.60903992 38.34296997 1.62094116 39.38092041 C1.64081085 40.32159363 1.66068054 41.26226685 1.68115234 42.23144531 C1.69447601 43.05751282 1.70779968 43.88358032 1.7215271 44.73468018 C2.02472816 47.20115851 2.76716538 48.85909429 4 51 C5.32 51 6.64 51 8 51 C7.67 51.99 7.34 52.98 7 54 C3.535 52.02 3.535 52.02 0 50 C0 33.5 0 17 0 0 Z " fill="#096ED4" transform="translate(96,256)"/>
<path d="M0 0 C3.10236168 0.5814832 4.8088942 1.417256 7.09375 3.58203125 C7.64933594 4.10216797 8.20492187 4.62230469 8.77734375 5.15820312 C9.34582031 5.70412109 9.91429687 6.25003906 10.5 6.8125 C11.06847656 7.34681641 11.63695312 7.88113281 12.22265625 8.43164062 C15.19867029 11.23848449 18.12481004 14.08957487 21 17 C19.1875 17.6875 19.1875 17.6875 17 18 C15.25 16.6875 15.25 16.6875 14 15 C14 14.34 14 13.68 14 13 C13.44828125 12.77441406 12.8965625 12.54882812 12.328125 12.31640625 C9.30047473 10.60446306 7.18674251 8.41342989 4.75 5.9375 C3.85796875 5.03902344 2.9659375 4.14054687 2.046875 3.21484375 C0 1 0 1 0 0 Z " fill="#D1D5E2" transform="translate(120,62)"/>
<path d="M0 0 C5.75 3.625 5.75 3.625 8 7 C8.99 7.33 9.98 7.66 11 8 C11 8.66 11 9.32 11 10 C11.66 10 12.32 10 13 10 C13.33 10.66 13.66 11.32 14 12 C14.66 12.268125 15.32 12.53625 16 12.8125 C18 14 18 14 18.75 16.625 C18.8325 17.40875 18.915 18.1925 19 19 C14.77336739 16.3460679 11.54419064 13.54419064 8 10 C7.13375 9.505 6.2675 9.01 5.375 8.5 C2.53585237 6.70685413 1.45825622 4.99326277 0 2 C0 1.34 0 0.68 0 0 Z " fill="#0346EE" transform="translate(186,396)"/>
<path d="M0 0 C3.21043882 1.38188453 5.04936365 2.92421903 7.25 5.625 C7.77078125 6.25664062 8.2915625 6.88828125 8.828125 7.5390625 C9.40820312 8.26222656 9.40820312 8.26222656 10 9 C6.01265823 10.32911392 6.01265823 10.32911392 3 9 C1.15457554 7.10184912 -0.38425134 5.10944964 -2 3 C-1.34 2.01 -0.68 1.02 0 0 Z " fill="#B1BAD0" transform="translate(191,131)"/>
<path d="M0 0 C1.98 0.99 1.98 0.99 4 2 C4 2.66 4 3.32 4 4 C5.794375 4.2165625 5.794375 4.2165625 7.625 4.4375 C11.1005158 4.87039343 14.54950034 5.39616256 18 6 C18 6.66 18 7.32 18 8 C20.475 8.495 20.475 8.495 23 9 C23 9.33 23 9.66 23 10 C17.258916 10.41007743 13.83874155 9.82540291 8.82421875 7.0078125 C6.88400695 5.86878301 6.88400695 5.86878301 4.125 5 C1.5217732 3.77495209 0.97271853 2.65286872 0 0 Z " fill="#677DB0" transform="translate(223,166)"/>
<path d="M0 0 C0.53625 0.28875 1.0725 0.5775 1.625 0.875 C4.05816157 2.12707668 4.05816157 2.12707668 7.125 2.75 C10 4 10 4 11.25 6.9375 C11.4975 7.948125 11.745 8.95875 12 10 C12.99 11.485 12.99 11.485 14 13 C9.72538761 12.51061681 7.67448934 10.04257174 4.75 7.0625 C3.85796875 6.16660156 2.9659375 5.27070312 2.046875 4.34765625 C0 2 0 2 0 0 Z " fill="#B3B8D3" transform="translate(160,104)"/>
<path d="M0 0 C2.76570327 0.65731961 5.44460503 1.42717972 8.125 2.375 C8.80820313 2.60960938 9.49140625 2.84421875 10.1953125 3.0859375 C12 4 12 4 14 7 C14 7.99 14 8.98 14 10 C13.443125 9.71125 12.88625 9.4225 12.3125 9.125 C10.02743544 7.94010364 10.02743544 7.94010364 7.5625 7.25 C3.98974735 5.50719383 2.39728521 3.15071771 0 0 Z " fill="#B9C0D0" transform="translate(153,98)"/>
<path d="M0 0 C4.29165262 -0.02891949 8.58328036 -0.04677118 12.875 -0.0625 C14.70998047 -0.07506836 14.70998047 -0.07506836 16.58203125 -0.08789062 C18.33193359 -0.09272461 18.33193359 -0.09272461 20.1171875 -0.09765625 C21.73536377 -0.10551147 21.73536377 -0.10551147 23.38623047 -0.11352539 C26 0 26 0 28 1 C27.34 2.32 26.68 3.64 26 5 C25.01 4.34 24.02 3.68 23 3 C23 2.34 23 1.68 23 1 C22.071875 1.165 21.14375 1.33 20.1875 1.5 C13.46186746 2.45884782 6.63289011 2.50856345 0 1 C0 0.67 0 0.34 0 0 Z " fill="#19BDFE" transform="translate(203,173)"/>
<path d="M0 0 C6.03331362 4.98404168 11.5184171 10.41915303 17 16 C12.69032084 16 11.10253255 13.83274712 8 11 C7.67 10.34 7.34 9.68 7 9 C6.38125 8.731875 5.7625 8.46375 5.125 8.1875 C2.32848951 6.62474414 1.41475402 4.82950805 0 2 C0 1.34 0 0.68 0 0 Z " fill="#1281E5" transform="translate(318,259)"/>
<path d="M0 0 C3 1 3 1 4.3125 2.375 C6.0702189 4.2292989 6.0702189 4.2292989 9.125 5.5625 C12 7 12 7 13 9 C15.01669827 10.13350534 15.01669827 10.13350534 17 11 C14.50907189 12.24546405 13.58919267 11.7767578 11 11 C11 10.34 11 9.68 11 9 C9.68 9 8.36 9 7 9 C5.078125 7.79296875 5.078125 7.79296875 3.25 6.1875 C2.32960937 5.40439453 2.32960937 5.40439453 1.390625 4.60546875 C0 3 0 3 0 0 Z " fill="#96A1BC" transform="translate(216,159)"/>
<path d="M0 0 C3.7961351 1.26537837 4.15494755 2.55055411 6 6 C6.33 6.7425 6.66 7.485 7 8.25 C7.94279946 10.35137474 7.94279946 10.35137474 11 11 C12.6875 13.5625 12.6875 13.5625 14 16 C13.01 16 12.02 16 11 16 C9.61096733 14.37946188 8.28667172 12.70294787 7 11 C6.13375 10.13375 5.2675 9.2675 4.375 8.375 C2 6 2 6 0 3 C0 2.01 0 1.02 0 0 Z " fill="#BDC1CF" transform="translate(108,49)"/>
<path d="M0 0 C0 0.99 0 1.98 0 3 C0.66 3 1.32 3 2 3 C2 3.66 2 4.32 2 5 C3.65 4.67 5.3 4.34 7 4 C7 4.66 7 5.32 7 6 C5.4375 7.25 5.4375 7.25 3 8 C-3.22818792 5.20805369 -3.22818792 5.20805369 -5.4375 1.75 C-5.623125 1.1725 -5.80875 0.595 -6 0 C-3.50907189 -1.24546405 -2.58919267 -0.7767578 0 0 Z " fill="#3C63DE" transform="translate(224,431)"/>
<path d="M0 0 C1.98 0 3.96 0 6 0 C6.0825 0.61875 6.165 1.2375 6.25 1.875 C6.81258459 4.18437567 6.81258459 4.18437567 9.0625 5.25 C9.701875 5.4975 10.34125 5.745 11 6 C11 7.32 11 8.64 11 10 C11.66 10.33 12.32 10.66 13 11 C10 11 10 11 7.51953125 8.84765625 C6.62621094 7.92855469 5.73289062 7.00945312 4.8125 6.0625 C3.91144531 5.14597656 3.01039062 4.22945313 2.08203125 3.28515625 C0 1 0 1 0 0 Z " fill="#305FE2" transform="translate(111,324)"/>
<path d="M0 0 C0.99 0 1.98 0 3 0 C3.33 1.65 3.66 3.3 4 5 C4.66 5 5.32 5 6 5 C6 5.99 6 6.98 6 8 C6.66 8 7.32 8 8 8 C9.625 10 9.625 10 11 12 C10.01 12.495 10.01 12.495 9 13 C8.34 12.67 7.68 12.34 7 12 C7 11.34 7 10.68 7 10 C6.34 10 5.68 10 5 10 C3.2734375 8.25 3.2734375 8.25 1.375 6 C0.74335938 5.2575 0.11171875 4.515 -0.5390625 3.75 C-1.02117187 3.1725 -1.50328125 2.595 -2 2 C-1.34 1.34 -0.68 0.68 0 0 Z " fill="#4369E1" transform="translate(178,388)"/>
<path d="M0 0 C4.52615993 3.67832017 8.39424999 7.41086363 12 12 C10.35 11.67 8.7 11.34 7 11 C7 10.34 7 9.68 7 9 C5.68 9.33 4.36 9.66 3 10 C2.49596232 8.70990357 1.99690074 7.41786211 1.5 6.125 C1.2215625 5.40570313 0.943125 4.68640625 0.65625 3.9453125 C0 2 0 2 0 0 Z " fill="#1083EB" transform="translate(342,283)"/>
<path d="M0 0 C2 2 2 2 2 5 C2.66 5 3.32 5 4 5 C4 5.66 4 6.32 4 7 C4.99 7.33 5.98 7.66 7 8 C7.33 9.65 7.66 11.3 8 13 C3.47384007 9.32167983 -0.39424999 5.58913637 -4 1 C-2.125 0.375 -2.125 0.375 0 0 Z " fill="#315CDE" transform="translate(156,364)"/>
<path d="M0 0 C2 3.75 2 3.75 2 6 C3.65 6 5.3 6 7 6 C9.125 10.625 9.125 10.625 8 14 C0.08881579 6.30263158 0.08881579 6.30263158 -0.1875 2.25 C-0.125625 1.5075 -0.06375 0.765 0 0 Z " fill="#4870E1" transform="translate(102,310)"/>
<path d="M0 0 C4.17443363 3.50074982 8.3145494 6.97950843 12 11 C12 11.66 12 12.32 12 13 C8.62801098 11.53424802 6.35012996 9.64818479 3.75 7.0625 C3.04359375 6.37285156 2.3371875 5.68320313 1.609375 4.97265625 C0 3 0 3 0 0 Z " fill="#A3A9C2" transform="translate(141,84)"/>
<path d="M0 0 C1.98 0 3.96 0 6 0 C6.268125 0.61875 6.53625 1.2375 6.8125 1.875 C7.95556848 4.2995233 7.95556848 4.2995233 11 6 C10.67 6.66 10.34 7.32 10 8 C6.40094092 7.44449305 5.00090201 6.25112752 2.75 3.4375 C2.22921875 2.79683594 1.7084375 2.15617187 1.171875 1.49609375 C0.78515625 1.00238281 0.3984375 0.50867188 0 0 Z " fill="#285CE2" transform="translate(123,336)"/>
<path d="M0 0 C0.99 0 1.98 0 3 0 C3.66 1.65 4.32 3.3 5 5 C5.99 5 6.98 5 8 5 C8 6.32 8 7.64 8 9 C6.125 8.75 6.125 8.75 4 8 C2.875 6.1875 2.875 6.1875 2 4 C1.62875 3.2575 1.2575 2.515 0.875 1.75 C0.58625 1.1725 0.2975 0.595 0 0 Z " fill="#1950E5" transform="translate(170,380)"/>
<path d="M0 0 C0.33 0 0.66 0 1 0 C1.12375 1.2375 1.2475 2.475 1.375 3.75 C1.75746305 6.8762197 2.30549523 9.28879237 4 12 C5.32 12 6.64 12 8 12 C7.67 12.99 7.34 13.98 7 15 C3.535 13.02 3.535 13.02 0 11 C0 7.37 0 3.74 0 0 Z " fill="#3D77DC" transform="translate(96,295)"/>
<path d="M0 0 C4.28324091 2.51407619 6.64531705 4.12314139 8 9 C6.25 8.875 6.25 8.875 4 8 C0 2.77777778 0 2.77777778 0 0 Z " fill="#1C4FE0" transform="translate(186,396)"/>
<path d="M0 0 C3.62613199 0.56959153 5.25517741 1.92374534 7.75 4.5625 C8.36359375 5.20316406 8.9771875 5.84382813 9.609375 6.50390625 C10.06828125 6.99761719 10.5271875 7.49132812 11 8 C10.34 8.66 9.68 9.32 9 10 C7.49702124 8.52386015 5.99768715 7.04400843 4.5 5.5625 C3.6646875 4.73878906 2.829375 3.91507812 1.96875 3.06640625 C0 1 0 1 0 0 Z " fill="#CACFDE" transform="translate(120,62)"/>
<path d="M0 0 C2.97 0.495 2.97 0.495 6 1 C6 2.98 6 4.96 6 7 C3 5.1875 3 5.1875 0 3 C0 2.01 0 1.02 0 0 Z " fill="#3960DF" transform="translate(212,424)"/>
<path d="M0 0 C1.14926266 0.95421808 2.29430541 1.91352045 3.4375 2.875 C4.07558594 3.40867188 4.71367187 3.94234375 5.37109375 4.4921875 C7 6 7 6 8 8 C5.6875 7.8125 5.6875 7.8125 3 7 C0 2.96551724 0 2.96551724 0 0 Z " fill="#B1B9CE" transform="translate(201,140)"/>
<path d="M0 0 C7.48291572 6.15034169 7.48291572 6.15034169 10 10 C7.6875 9.8125 7.6875 9.8125 5 9 C3.3125 6.6875 3.3125 6.6875 2 4 C1.33429481 2.66618636 0.66780311 1.33276451 0 0 Z " fill="#167EE0" transform="translate(298,239)"/>
<path d="M0 0 C3.36179774 1.44077046 5.59156268 3.24750021 8 6 C8 6.66 8 7.32 8 8 C4.63820226 6.55922954 2.40843732 4.75249979 0 2 C0 1.34 0 0.68 0 0 Z " fill="#A3AABB" transform="translate(132,76)"/>
<path d="M0 0 C0.33 0 0.66 0 1 0 C1 2.97 1 5.94 1 9 C0.01 9.33 -0.98 9.66 -2 10 C-2 9.34 -2 8.68 -2 8 C-2.66 8 -3.32 8 -4 8 C-3.67 7.01 -3.34 6.02 -3 5 C-2.34 5 -1.68 5 -1 5 C-0.67 3.35 -0.34 1.7 0 0 Z " fill="#0347F6" transform="translate(228,426)"/>
<path d="M0 0 C3.40320742 1.01176437 4.75725331 1.64843582 6.8125 4.625 C7.204375 5.40875 7.59625 6.1925 8 7 C7.01 7.495 7.01 7.495 6 8 C4.5 6.625 4.5 6.625 3 5 C3 4.34 3 3.68 3 3 C2.34 3 1.68 3 1 3 C0.67 2.01 0.34 1.02 0 0 Z " fill="#657DE1" transform="translate(192,405)"/>
<path d="M0 0 C2.97 0.495 2.97 0.495 6 1 C6.33 2.98 6.66 4.96 7 7 C5.83040013 6.02433888 4.66438823 5.044375 3.5 4.0625 C2.8503125 3.51722656 2.200625 2.97195313 1.53125 2.41015625 C1.0259375 1.94480469 0.520625 1.47945313 0 1 C0 0.67 0 0.34 0 0 Z " fill="#3861DF" transform="translate(145,358)"/>
<path d="M0 0 C1.32 0 2.64 0 4 0 C4 0.66 4 1.32 4 2 C5.65 2.33 7.3 2.66 9 3 C9 3.33 9 3.66 9 4 C6.36 4 3.72 4 1 4 C0.67 2.68 0.34 1.36 0 0 Z " fill="#7A8AB4" transform="translate(237,172)"/>
<path d="M0 0 C3.3 0 6.6 0 10 0 C9.34 1.65 8.68 3.3 8 5 C5.28775382 3.38731308 2.62647188 1.75098126 0 0 Z " fill="#082ED4" transform="translate(221,308)"/>
<path d="M0 0 C0.66 0 1.32 0 2 0 C2.05391993 1.79133978 2.09275571 3.58313899 2.125 5.375 C2.14820312 6.37273437 2.17140625 7.37046875 2.1953125 8.3984375 C2 11 2 11 0 13 C-0.19397476 11.02145742 -0.38001321 9.0421352 -0.5625 7.0625 C-0.66691406 5.96035156 -0.77132812 4.85820312 -0.87890625 3.72265625 C-0.91886719 2.82417969 -0.95882812 1.92570313 -1 1 C-0.67 0.67 -0.34 0.34 0 0 Z " fill="#1EA3F6" transform="translate(97,174)"/>
<path d="M0 0 C5.875 3.625 5.875 3.625 7 7 C3.76509224 6.44225728 2.02144994 5.62788492 0 3 C0 2.01 0 1.02 0 0 Z " fill="#929AC0" transform="translate(208,151)"/>
<path d="M0 0 C5.875 3.625 5.875 3.625 7 7 C3.76509224 6.44225728 2.02144994 5.62788492 0 3 C0 2.01 0 1.02 0 0 Z " fill="#9FA5B8" transform="translate(184,127)"/>
<path d="M0 0 C0.66 0 1.32 0 2 0 C2 2.97 2 5.94 2 9 C1.34 9 0.68 9 0 9 C-1.125 3.375 -1.125 3.375 0 0 Z " fill="#1650D8" transform="translate(104,307)"/>
<path d="M0 0 C0.598125 0.20625 1.19625 0.4125 1.8125 0.625 C0.8225 0.955 -0.1675 1.285 -1.1875 1.625 C-1.1875 2.285 -1.1875 2.945 -1.1875 3.625 C-2.8375 3.955 -4.4875 4.285 -6.1875 4.625 C-5.03076352 1.15479057 -3.91311293 -0.67081936 0 0 Z " fill="#81BFED" transform="translate(102.1875,170.375)"/>
<path d="M0 0 C2.31 0 4.62 0 7 0 C7 0.99 7 1.98 7 3 C4.69 2.67 2.38 2.34 0 2 C0 1.34 0 0.68 0 0 Z " fill="#DADBDC" transform="translate(332,32)"/>
<path d="M0 0 C2.31 1.98 4.62 3.96 7 6 C5.68 6.33 4.36 6.66 3 7 C0 2.25 0 2.25 0 0 Z " fill="#0F7FE4" transform="translate(335,276)"/>
<path d="M0 0 C3.36720387 1.39332574 4.9859524 2.9789286 7 6 C3.75728494 5.4409112 2.06942576 4.5867822 0 2 C0 1.34 0 0.68 0 0 Z " fill="#9DA3BC" transform="translate(176,120)"/>
<path d="M0 0 C3.36720387 1.39332574 4.9859524 2.9789286 7 6 C3.75728494 5.4409112 2.06942576 4.5867822 0 2 C0 1.34 0 0.68 0 0 Z " fill="#A3A8C1" transform="translate(167,111)"/>
</svg>
